# xmcd CD database file
#
# Track frame offsets:
#	150
#	17070
#	35027
#	51866
#	72948
#	93932
#	115198
#	148640
#	181720
#	196008
#	211740
#	227775
#	243709
#	270855
#	297342
#
# Disc length: 4298 seconds
#
# Revision: 2
# Processed by: cddbd v1.4b41PL1 Copyright (c) Steve Scherf et al.
# Submitted via: Feurio! 1.52 - http://www.feurio.com
#
DISCID=d010c80f
DTITLE=Various Artist - House Line 9
DYEAR=1900
DGENRE=
TTITLE0=GTS - Elements of Summer
TTITLE1=Time Motion Project - Feel Me
TTITLE2=DJ Silencer - Mystic Place
TTITLE3=A.T.O.G - All Bitches '98
TTITLE4=Ghost Riders - Turn It Up
TTITLE5=Electro G - Get Ready
TTITLE6=Captain Mase - Star Trip '98
TTITLE7=Trance M - Orient Express
TTITLE8=Exit D - Viper-Themes
TTITLE9=The Horny's - Moments In Love
TTITLE10=Viagra - Joco Gona
TTITLE11=MR Dress Man - Jack's Revival
TTITLE12=R 909 - P-Cussion
TTITLE13=L-A Styles - Nature One
TTITLE14=Force 2 - Open Your Mind
EXTD=
EXTT0=
EXTT1=
EXTT2=
EXTT3=
EXTT4=
EXTT5=
EXTT6=
EXTT7=
EXTT8=
EXTT9=
EXTT10=
EXTT11=
EXTT12=
EXTT13=
EXTT14=
PLAYORDER=
